<?xml version="1.0" standalone="no"?>
<!DOCTYPE svg PUBLIC "-//W3C//DTD SVG 20010904//EN"
 "http://www.w3.org/TR/2001/REC-SVG-20010904/DTD/svg10.dtd">
<svg version="1.0" xmlns="http://www.w3.org/2000/svg"
 width="1000.000000pt" height="1000.000000pt" viewBox="0 0 1000.000000 1000.000000"
 preserveAspectRatio="xMidYMid meet">
<metadata>
Created by potrace 1.11, written by Peter Selinger 2001-2013
</metadata>
<g transform="translate(0.000000,1000.000000) scale(0.100000,-0.100000)"
fill="#000000" stroke="none">
<path d="M5574 7565 c-88 -130 -163 -243 -169 -252 -5 -10 -14 -22 -20 -29
-13 -15 -179 -262 -223 -331 l-33 -53 20 -107 c11 -60 22 -120 25 -136 3 -15
10 -55 16 -88 10 -52 8 -83 -3 -68 -4 5 -144 258 -252 457 l-78 144 -18 -24
c-17 -21 -420 -654 -444 -696 -30 -52 -519 -821 -521 -819 -1 1 -91 178 -200
392 -108 215 -200 393 -204 398 -3 4 -61 -20 -128 -53 -118 -59 -122 -61 -116
-88 4 -15 20 -76 36 -135 17 -60 27 -111 24 -114 -3 -4 -8 -4 -10 -2 -5 6
-325 473 -410 599 -39 58 -73 107 -76 110 -3 3 -45 64 -93 135 -48 72 -95 140
-105 152 -17 22 -18 21 -122 -135 -58 -86 -107 -161 -109 -167 -2 -5 -7 -12
-10 -15 -4 -3 -27 -36 -51 -75 -25 -38 -48 -71 -52 -73 -5 -2 -8 -10 -8 -17 0
-7 -6 -15 -12 -18 -17 -6 -8 -15 22 -21 27 -5 59 -12 103 -22 67 -14 12 -20
-185 -20 -163 1 -215 -2 -225 -12 -7 -8 -34 -44 -60 -80 -26 -37 -50 -69 -53
-72 -3 -3 -51 -66 -105 -140 -55 -74 -117 -157 -137 -185 -43 -56 -44 -62 -23
-102 35 -66 135 -286 131 -290 -2 -2 -93 87 -202 198 -244 247 -236 239 -243
234 -4 -2 -38 -50 -76 -107 -38 -57 -72 -105 -75 -108 -3 -3 -28 -39 -55 -80
-27 -41 -51 -77 -55 -80 -3 -3 -43 -61 -90 -130 -46 -69 -88 -129 -92 -135 -5
-5 -65 -93 -135 -195 -69 -102 -167 -245 -217 -318 -136 -199 -138 -205 -44
-112 47 47 227 223 399 392 173 168 317 309 320 312 3 4 46 -25 95 -64 49 -38
102 -80 118 -92 16 -13 57 -45 92 -73 161 -130 226 -177 233 -169 11 13 91
143 91 148 0 3 18 32 40 65 22 33 40 63 40 66 0 3 15 29 34 58 73 113 226 368
226 377 0 6 4 10 9 10 5 0 12 8 15 18 7 19 11 25 79 135 27 42 51 77 54 77 3
0 98 -92 211 -205 112 -113 205 -205 207 -205 1 0 32 11 68 24 35 14 67 22 71
19 3 -4 6 -1 6 6 0 7 4 10 10 6 5 -3 6 -13 3 -22 -4 -10 -2 -14 4 -10 12 8 12
-11 0 -30 -5 -7 -4 -13 1 -13 17 0 19 -58 3 -77 -15 -15 -15 -16 1 -4 11 8 18
9 23 1 3 -5 1 -10 -5 -10 -7 0 -5 -7 4 -16 18 -18 21 -34 5 -34 -5 0 -7 5 -3
12 4 7 3 8 -5 4 -15 -9 -5 -26 16 -26 9 0 13 -3 10 -7 -4 -3 -1 -13 6 -21 10
-13 9 -15 -5 -9 -10 3 -18 2 -18 -3 0 -6 10 -10 23 -10 21 -1 22 -1 3 -15 -11
-8 -14 -15 -7 -15 7 0 9 -5 5 -12 -4 -7 -3 -8 5 -4 6 4 9 12 6 17 -4 5 -2 9 2
9 16 0 32 -57 19 -70 -8 -9 -7 -11 4 -8 8 2 14 -3 13 -9 -2 -7 2 -13 8 -13 8
0 8 -5 -1 -15 -7 -8 -17 -12 -23 -8 -6 4 -7 1 -2 -6 5 -9 10 -10 18 -2 18 18
31 13 16 -6 -7 -10 -9 -15 -5 -11 5 4 15 3 23 -3 10 -9 11 -15 2 -26 -10 -11
-8 -12 6 -7 13 5 16 4 11 -4 -4 -7 -3 -12 2 -12 5 0 14 -12 20 -26 7 -14 8
-23 2 -19 -5 3 -10 1 -10 -4 0 -6 6 -11 13 -11 11 0 45 -55 48 -78 0 -4 8 -16
17 -26 13 -15 13 -17 2 -11 -12 7 -12 5 1 -11 30 -35 40 -62 27 -70 -6 -4 -8
-3 -5 3 4 6 -2 22 -14 34 l-20 24 15 -25 c8 -14 15 -29 16 -35 0 -5 6 -10 13
-10 6 0 13 -6 13 -12 1 -7 3 -15 4 -18 7 -14 5 -31 -4 -44 -8 -11 -8 -13 2 -7
7 4 12 2 12 -8 0 -8 -5 -18 -10 -21 -6 -4 -8 -10 -5 -15 3 -4 -1 -10 -8 -13
-14 -5 -47 15 -47 28 0 5 -6 16 -14 24 -8 9 -28 56 -45 104 -40 115 -46 124
-73 123 -38 -2 -51 -16 -44 -47 7 -38 -2 -59 -22 -52 -14 4 -15 3 -2 -5 10 -8
18 -8 27 -1 9 8 11 5 10 -13 0 -13 -6 -26 -12 -30 -6 -5 -3 -8 8 -8 9 0 17 -5
17 -11 0 -5 -6 -7 -12 -3 -10 6 -9 3 0 -8 7 -9 14 -33 15 -52 1 -20 5 -36 10
-36 4 0 7 -9 7 -21 0 -11 -4 -18 -9 -15 -10 7 -9 -50 2 -60 10 -11 98 -13 91
-3 -3 5 0 9 6 9 6 0 9 4 6 9 -7 10 9 8 36 -4 10 -4 15 -11 12 -16 -3 -5 5 -8
18 -6 16 1 22 -3 20 -13 -3 -11 1 -11 16 3 10 9 26 17 34 17 9 0 18 4 20 9 2
5 9 11 16 13 7 2 32 21 55 43 24 23 58 51 76 64 32 23 32 23 20 2 -8 -11 -17
-21 -22 -21 -4 0 -5 -4 -2 -10 3 -5 1 -10 -4 -10 -6 0 -11 -8 -11 -17 0 -15 2
-16 10 -3 8 12 10 10 10 -8 0 -13 -4 -20 -10 -17 -15 9 -12 -4 4 -21 8 -8 22
-14 30 -14 9 0 16 -4 16 -10 0 -5 5 -10 11 -10 5 0 8 4 5 9 -3 5 6 9 19 9 14
0 25 -6 25 -12 0 -6 5 -4 10 4 9 13 10 13 10 0 0 -9 3 -11 8 -5 18 25 39 12
32 -20 -1 -5 2 -6 7 -2 4 5 9 13 9 18 1 5 2 11 3 14 0 3 9 1 20 -4 21 -12 51
5 54 29 2 8 7 22 11 30 5 8 6 12 1 8 -19 -17 -46 68 -49 154 -2 85 -2 88 26
115 15 15 28 23 28 17 0 -5 5 -2 10 6 8 13 10 12 10 -2 0 -10 -5 -18 -12 -18
-6 0 -4 -6 7 -13 12 -9 14 -16 7 -21 -6 -4 -8 -14 -5 -24 6 -14 4 -15 -9 -4
-13 10 -18 10 -24 1 -4 -7 -3 -10 2 -6 5 3 18 -1 29 -9 10 -8 13 -14 7 -14
-10 0 -10 -5 -2 -20 8 -15 8 -20 -2 -20 -9 0 -9 -3 2 -10 12 -8 12 -10 1 -10
-11 0 -11 -3 -1 -15 8 -10 9 -15 2 -15 -6 0 -16 8 -21 18 -6 9 -11 12 -11 5 0
-6 8 -18 18 -25 19 -14 31 -65 13 -54 -6 4 -11 2 -11 -3 0 -6 5 -11 10 -11 6
0 10 -8 10 -17 0 -15 -2 -16 -10 -3 -7 10 -10 11 -10 2 0 -7 7 -15 15 -18 8
-4 15 -11 15 -17 0 -6 7 -19 16 -29 14 -15 15 -20 3 -35 -12 -16 -12 -17 2 -6
9 7 20 9 24 5 5 -4 5 -1 1 6 -4 7 -1 12 9 12 9 0 13 -5 9 -11 -4 -8 -1 -8 13
-1 10 6 24 7 31 3 6 -3 24 -6 39 -5 15 1 36 3 46 3 23 1 24 72 1 106 -13 20
-16 63 -19 239 l-3 215 27 23 c60 52 58 52 57 0 -1 -26 -5 -50 -10 -54 -13 -9
-17 -40 -4 -32 6 4 8 1 6 -7 -3 -8 -1 -23 5 -33 7 -15 6 -18 -7 -13 -10 4 -20
-1 -26 -13 -7 -14 -7 -20 0 -20 5 0 10 7 10 15 0 9 6 12 15 9 12 -5 13 -10 4
-20 -9 -11 -8 -14 2 -14 11 0 11 -3 -1 -11 -11 -8 -12 -12 -2 -16 6 -2 12 -9
12 -14 0 -6 -5 -7 -11 -3 -7 4 -7 -1 1 -16 10 -18 8 -25 -6 -41 -16 -18 -16
-19 -1 -13 23 8 34 -23 18 -49 -11 -17 -11 -19 1 -14 9 3 15 -1 15 -10 0 -9
-7 -13 -19 -10 -10 3 -21 0 -25 -5 -4 -7 -1 -8 7 -3 10 6 12 4 6 -11 -6 -15
-5 -17 5 -6 20 19 36 14 41 -12 4 -18 1 -23 -10 -18 -10 3 -13 1 -8 -6 4 -7
14 -12 22 -12 19 0 18 -17 -3 -29 -11 -6 -13 -11 -5 -11 7 0 10 -5 6 -12 -4
-7 -3 -8 5 -4 6 4 9 12 6 17 -4 5 -1 9 4 9 6 0 11 -5 11 -11 0 -6 9 -22 20
-36 22 -28 28 -55 8 -35 -7 7 -16 12 -22 12 -5 0 -1 -6 9 -14 11 -8 24 -12 30
-9 7 2 18 -3 25 -12 7 -8 9 -15 4 -15 -5 -1 7 -8 26 -17 19 -9 38 -15 43 -15
4 1 7 -6 7 -16 0 -14 2 -15 10 -2 8 12 13 13 29 3 11 -7 22 -9 25 -4 3 5 19
11 35 14 66 13 146 135 165 252 13 71 15 309 5 365 -23 122 -79 230 -150 285
-21 17 -38 32 -38 35 0 3 19 20 42 37 23 18 56 45 74 60 17 16 42 37 55 48 12
10 78 65 145 122 l121 102 74 -15 c40 -9 84 -18 98 -20 14 -3 77 -16 140 -29
63 -13 130 -27 149 -30 19 -3 37 -8 41 -10 3 -2 10 -1 16 3 8 6 162 366 456
1067 33 77 65 153 72 169 l14 28 36 -77 c20 -42 36 -78 36 -80 0 -2 15 -36 34
-77 18 -40 74 -163 124 -273 49 -110 105 -234 124 -275 19 -41 57 -125 84
-187 27 -62 52 -109 56 -105 3 4 55 90 114 192 59 102 108 187 110 189 3 4
151 -104 164 -120 3 -3 79 -63 170 -133 91 -70 180 -139 199 -154 19 -15 67
-52 106 -82 40 -30 161 -125 270 -210 108 -85 209 -164 224 -175 84 -63 440
-341 458 -357 l22 -20 171 171 c94 94 175 171 179 171 4 0 13 -10 19 -22 6
-13 72 -122 146 -243 74 -121 159 -260 188 -308 29 -49 58 -96 63 -105 6 -10
23 -39 39 -65 17 -29 34 -46 42 -43 11 4 330 250 344 266 12 12 79 60 85 60 4
0 75 -67 158 -149 84 -82 199 -195 257 -251 58 -56 141 -136 184 -178 76 -74
78 -75 44 -27 -19 28 -140 203 -268 390 -129 187 -248 360 -265 385 -17 25
-69 100 -114 168 -46 67 -86 124 -90 127 -5 2 -85 -75 -180 -172 -95 -96 -174
-173 -178 -170 -3 3 21 63 54 134 l59 128 -169 228 -169 228 -137 -1 c-75 -1
-156 -1 -181 0 l-45 2 40 13 c22 8 52 14 68 14 15 1 27 6 27 11 0 12 -282 440
-290 440 -3 -1 -17 -17 -32 -38 -23 -33 -179 -234 -211 -272 -7 -8 -64 -81
-127 -162 -63 -82 -117 -148 -120 -148 -3 1 -14 15 -26 33 -11 18 -152 219
-314 447 -161 228 -352 498 -423 600 -72 102 -131 187 -133 189 -2 2 -28 4
-58 5 -51 1 -55 -1 -50 -19 3 -11 30 -89 60 -173 30 -84 54 -155 54 -157 0
-18 -25 7 -85 86 -39 50 -75 96 -80 103 -6 6 -33 40 -60 76 -28 36 -54 70 -60
77 -5 7 -15 18 -20 25 -25 32 -161 204 -172 218 -26 32 -485 616 -501 638 -9
12 -20 22 -23 22 -4 0 -78 -106 -165 -235z m-2268 -1959 c-12 -12 -15 -21 -8
-24 6 -2 8 -10 5 -18 -3 -8 1 -22 8 -31 12 -14 12 -16 0 -8 -10 5 -12 4 -7 -3
4 -7 14 -12 23 -12 13 0 13 -3 3 -15 -11 -13 -14 -13 -27 2 -13 16 -13 16 -3
-4 6 -13 14 -22 18 -20 4 1 7 -2 7 -8 0 -5 -4 -9 -10 -7 -5 1 1 -7 14 -18 14
-12 18 -20 10 -20 -9 0 -10 -3 -4 -8 6 -4 11 -27 13 -50 3 -40 2 -43 -16 -38
-12 4 -24 2 -28 -5 -4 -7 -3 -9 4 -6 5 4 16 5 24 2 17 -7 22 -55 5 -56 -6 0
-3 -4 8 -9 11 -5 15 -9 8 -9 -8 -1 -9 -10 -2 -33 11 -40 11 -38 -2 -38 -5 0
-7 5 -3 12 4 7 3 8 -4 4 -9 -5 -8 -13 3 -29 19 -30 16 -110 -5 -102 -8 4 -4
-4 8 -16 17 -15 21 -24 13 -32 -13 -13 -15 -31 -3 -23 4 2 8 -6 8 -20 0 -13
-4 -24 -8 -24 -4 0 -8 -5 -8 -11 0 -5 4 -8 8 -5 16 10 13 -80 -4 -100 -8 -10
-12 -13 -8 -5 4 9 3 12 -4 7 -6 -4 -9 -13 -6 -20 3 -7 -2 -20 -10 -29 -9 -9
-16 -20 -16 -26 0 -5 -5 -13 -12 -17 -8 -5 -9 -2 -4 12 12 31 15 184 5 244
-15 82 -56 201 -104 298 -42 88 -139 290 -156 327 -17 39 -14 46 23 59 21 8
35 10 32 5 -3 -5 -2 -9 3 -9 4 0 13 -12 19 -27 16 -40 27 -67 29 -75 2 -5 4
-11 5 -15 1 -5 2 -11 1 -15 0 -5 4 -8 9 -8 6 0 10 -8 10 -17 0 -14 -2 -15 -9
-5 -7 11 -9 11 -14 -1 -6 -15 15 -18 29 -4 4 4 14 7 23 7 12 0 12 -3 3 -12 -7
-7 -12 -16 -12 -20 0 -4 9 1 20 12 12 12 25 18 30 15 6 -4 10 -1 10 5 0 6 5 8
13 4 9 -6 9 -4 -1 8 -7 9 -12 22 -11 30 1 7 -1 20 -4 28 -6 15 -27 125 -27
142 0 5 24 -15 53 -44 51 -52 52 -53 33 -72z m288 -283 c-5 -15 -4 -15 5 -3 9
13 12 13 23 1 10 -10 10 -12 1 -7 -7 4 -13 2 -13 -3 0 -6 5 -11 11 -11 6 0 8
-9 4 -21 -4 -12 -3 -19 2 -16 5 3 7 -7 5 -24 -2 -16 -9 -29 -15 -29 -6 0 -8
-3 -4 -6 5 -5 -48 -94 -56 -94 -1 0 -3 63 -5 141 l-3 141 25 -26 c17 -16 24
-31 20 -43z m593 22 c16 -33 16 -36 -3 -50 -16 -13 -16 -14 -1 -9 9 3 17 1 17
-5 0 -6 -6 -11 -12 -12 -10 0 -10 -2 0 -6 20 -8 13 -22 -9 -18 -12 3 -18 1
-15 -3 4 -4 13 -7 19 -7 7 0 13 -9 15 -20 3 -16 1 -17 -7 -5 -9 13 -11 13 -11
-2 0 -10 5 -18 10 -18 16 0 12 -22 -7 -36 -15 -12 -15 -13 -2 -8 14 4 16 -3
16 -46 -1 -32 -5 -49 -12 -46 -6 2 -11 -5 -11 -15 0 -11 4 -15 11 -9 6 5 10
-3 10 -26 0 -19 -4 -33 -10 -30 -6 2 -11 -5 -11 -15 0 -11 4 -15 11 -9 6 5 10
-3 10 -26 0 -20 -4 -33 -11 -30 -6 2 -11 -2 -11 -10 0 -7 4 -11 9 -8 9 6 9 5
11 -83 2 -45 -2 -63 -10 -63 -7 0 -13 -5 -13 -11 0 -5 4 -8 9 -5 15 10 11 -82
-4 -94 -18 -15 -38 -3 -31 17 3 8 1 11 -4 8 -5 -3 -10 4 -10 17 0 233 0 504 1
508 0 3 0 39 -1 81 -1 71 13 129 32 129 4 0 16 -16 25 -35z m-1227 -715 c0
-11 -4 -20 -8 -20 -4 0 -8 9 -9 20 -1 11 2 20 8 20 5 0 9 -9 9 -20z"/>
<path d="M3074 5651 c0 -11 3 -18 7 -15 4 2 10 -2 12 -8 3 -7 6 -8 6 -2 1 5
-5 18 -12 28 -12 16 -13 16 -13 -3z"/>
<path d="M3109 5597 c6 -8 8 -17 4 -20 -3 -4 -1 -7 5 -7 14 0 14 2 6 24 -3 9
-11 16 -16 16 -7 0 -6 -5 1 -13z"/>
<path d="M3133 5535 c-3 -9 -3 -18 -1 -21 3 -3 8 4 11 16 6 23 -1 27 -10 5z"/>
<path d="M3275 5540 c-3 -5 -1 -10 4 -10 6 0 11 5 11 10 0 6 -2 10 -4 10 -3 0
-8 -4 -11 -10z"/>
<path d="M3313 5380 c0 -23 3 -28 9 -16 5 9 5 23 0 32 -6 12 -9 7 -9 -16z"/>
<path d="M3315 5220 c3 -5 8 -10 11 -10 2 0 4 5 4 10 0 6 -5 10 -11 10 -5 0
-7 -4 -4 -10z"/>
<path d="M3320 5120 c-12 -7 -10 -9 8 -7 12 0 22 5 22 9 0 11 -12 10 -30 -2z"/>
<path d="M3330 5079 c0 -5 5 -7 10 -4 6 3 10 8 10 11 0 2 -4 4 -10 4 -5 0 -10
-5 -10 -11z"/>
<path d="M3326 4962 c-3 -5 1 -9 9 -9 8 0 15 4 15 9 0 4 -4 8 -9 8 -6 0 -12
-4 -15 -8z"/>
<path d="M3351 4874 c0 -11 3 -14 6 -6 3 7 2 16 -1 19 -3 4 -6 -2 -5 -13z"/>
<path d="M4175 5320 c-3 -5 -1 -10 4 -10 6 0 11 5 11 10 0 6 -2 10 -4 10 -3 0
-8 -4 -11 -10z"/>
<path d="M4156 5118 c3 -5 10 -6 15 -3 13 9 11 12 -6 12 -8 0 -12 -4 -9 -9z"/>
<path d="M4160 4820 c-9 -6 -10 -10 -3 -10 6 0 15 5 18 10 8 12 4 12 -15 0z"/>
<path d="M4165 4639 c-4 -6 -5 -12 -2 -15 2 -3 7 2 10 11 7 17 1 20 -8 4z"/>
<path d="M2814 5489 c0 -10 4 -19 8 -19 4 0 8 6 8 14 0 8 -4 17 -8 20 -4 2 -8
-4 -8 -15z"/>
<path d="M2826 5402 c-3 -5 1 -9 9 -9 8 0 12 4 9 9 -3 4 -7 8 -9 8 -2 0 -6 -4
-9 -8z"/>
<path d="M4457 5362 c-9 -20 -7 -75 3 -88 7 -7 9 -14 4 -14 -5 0 -2 -5 6 -11
13 -9 12 -10 -2 -5 -10 3 -20 0 -24 -6 -4 -6 -3 -8 2 -5 17 10 36 -10 40 -42
2 -19 0 -30 -6 -26 -15 10 -12 -5 6 -22 8 -9 14 -25 13 -37 0 -11 0 -23 1 -26
4 -10 10 -66 12 -117 1 -29 5 -53 8 -53 3 0 7 -11 8 -26 1 -14 -2 -23 -8 -19
-6 3 -10 2 -10 -4 0 -5 5 -11 12 -13 6 -2 13 -19 14 -37 2 -24 -1 -31 -12 -27
-7 3 -16 1 -19 -5 -4 -5 -3 -9 2 -8 4 1 17 1 28 0 15 -1 17 -3 6 -10 -11 -7
-11 -9 0 -13 11 -4 12 -10 2 -25 -8 -14 -8 -24 -2 -30 6 -6 12 -21 14 -34 15
-91 16 -103 6 -89 -8 12 -10 11 -8 -7 0 -12 4 -20 8 -17 4 2 10 -3 13 -12 4
-10 2 -13 -7 -8 -8 5 -7 2 2 -9 7 -9 11 -17 8 -17 -3 0 -2 -14 3 -30 5 -19 5
-28 -1 -25 -5 4 -9 4 -9 1 0 -8 57 -36 62 -31 2 3 18 1 35 -4 17 -5 34 -6 40
-2 5 3 21 60 37 126 36 155 34 149 36 155 1 3 2 8 1 13 -2 13 17 7 23 -8 3
-10 -1 -15 -12 -16 -14 0 -14 -2 -2 -7 8 -4 16 -15 18 -26 2 -11 -1 -15 -7
-11 -6 3 -11 1 -11 -4 0 -6 8 -11 18 -12 9 0 12 -3 5 -5 -8 -4 -9 -14 -3 -36
11 -37 9 -49 -10 -65 -12 -10 -11 -11 10 -7 20 5 22 3 10 -5 -10 -7 -11 -11
-2 -11 6 0 12 -9 12 -20 0 -11 -4 -20 -10 -20 -5 0 -10 -5 -10 -11 0 -5 5 -7
10 -4 9 5 15 -24 11 -49 -3 -13 32 -34 46 -29 8 3 13 -3 14 -13 0 -11 3 -14 5
-7 3 7 18 10 39 6 33 -5 34 -4 45 38 6 24 13 51 15 59 2 8 6 26 9 40 2 14 9
45 16 70 7 25 13 52 15 60 2 8 20 80 40 160 58 231 68 260 90 260 15 0 16 2
19 43 1 13 8 21 16 20 29 -5 -35 32 -93 55 -33 12 -62 22 -66 22 -14 0 -11
-81 4 -104 12 -19 14 -30 6 -44 -6 -11 -7 -23 -3 -28 4 -5 -1 -2 -11 6 -17 13
-17 12 -5 -15 10 -22 10 -29 1 -32 -7 -3 -9 -11 -6 -19 3 -8 1 -20 -4 -27 -5
-6 -10 -25 -12 -42 -2 -16 -6 -32 -10 -35 -3 -3 -6 -13 -7 -22 -2 -55 -5 -68
-12 -68 -4 0 -7 12 -8 28 -1 24 -7 84 -19 177 -17 127 -16 144 4 164 22 22 21
79 -1 92 -15 10 -171 65 -210 74 -24 6 -27 4 -30 -27 -2 -19 6 -54 19 -83 12
-27 19 -52 16 -55 -3 -3 -8 1 -10 8 -3 6 -10 12 -16 12 -8 0 -8 -3 1 -12 8 -8
8 -17 1 -32 -10 -20 -10 -20 5 -2 9 11 16 18 17 15 0 -2 3 -15 5 -29 3 -16 -2
-30 -13 -38 -17 -13 -17 -14 2 -8 17 5 21 1 23 -19 1 -18 -3 -25 -16 -26 -10
0 -12 -3 -4 -6 6 -2 12 -11 12 -19 0 -9 -4 -13 -9 -10 -5 4 -7 -3 -4 -15 4
-12 0 -25 -8 -30 -8 -5 -9 -9 -3 -9 7 0 9 -11 6 -25 -2 -15 -11 -25 -21 -24
-10 0 -11 2 -3 6 6 2 12 9 12 14 0 6 -4 8 -9 5 -7 -5 -25 100 -37 224 -2 19
-6 46 -9 59 -4 15 0 30 11 43 17 18 23 76 10 97 -4 6 -50 24 -104 42 -114 36
-130 40 -135 31z m273 -547 c0 -8 -2 -15 -4 -15 -2 0 -6 7 -10 15 -3 8 -1 15
4 15 6 0 10 -7 10 -15z"/>
<path d="M2830 5357 c0 -2 6 -10 14 -16 11 -9 16 -9 22 1 4 7 4 10 -1 6 -4 -4
-14 -3 -22 3 -7 6 -13 9 -13 6z"/>
<path d="M4430 5281 c0 -10 19 -25 25 -20 1 2 -3 10 -11 17 -8 7 -14 8 -14 3z"/>
<path d="M2902 5251 c-11 -6 -10 -10 4 -15 9 -3 19 -4 22 -1 3 3 0 5 -7 5 -7
0 -9 5 -6 10 7 12 4 12 -13 1z"/>
<path d="M5243 5242 c-6 -4 -13 -18 -14 -32 -2 -14 -8 -28 -14 -32 -6 -5 -5
-8 2 -8 9 0 10 -7 5 -22 -5 -13 -8 -30 -7 -38 1 -8 -6 -24 -14 -34 -9 -11 -10
-16 -3 -12 8 5 12 -1 12 -17 0 -19 8 -28 31 -36 46 -16 47 -15 59 32 6 23 12
47 14 52 2 6 4 14 4 19 0 13 23 25 37 19 14 -5 15 -53 2 -53 -5 0 -5 -10 -2
-21 5 -14 2 -25 -6 -30 -10 -6 -11 -9 -1 -9 6 0 12 -5 12 -11 0 -5 -5 -7 -12
-3 -7 5 -8 3 -3 -7 12 -18 6 -90 -8 -108 -9 -12 -9 -13 1 -7 6 4 12 2 12 -3 0
-6 -3 -11 -7 -11 -5 0 -7 -23 -7 -50 1 -40 -1 -48 -11 -40 -10 8 -15 8 -21 -1
-4 -7 -3 -9 3 -6 6 4 16 0 23 -8 10 -12 10 -15 -3 -15 -9 0 -19 -4 -22 -10 -3
-6 1 -7 9 -4 12 5 16 -1 16 -25 0 -18 -5 -31 -12 -31 -8 0 -9 -3 -3 -8 6 -4
11 -17 11 -30 1 -18 -1 -20 -12 -11 -8 6 -11 16 -7 22 3 6 1 7 -5 3 -9 -5 -8
-13 2 -29 7 -12 12 -38 11 -57 -1 -19 -3 -48 -4 -63 0 -16 -5 -26 -9 -23 -4 2
-14 0 -22 -6 -12 -8 -12 -9 3 -4 23 7 34 -20 18 -45 -9 -15 -8 -19 1 -19 9 0
10 -3 2 -8 -6 -4 -10 -15 -8 -25 1 -9 -6 -22 -17 -27 -10 -6 -19 -18 -19 -27
0 -13 -2 -14 -17 -2 -17 13 -17 12 -3 -5 16 -20 23 -49 10 -41 -5 3 -12 1 -15
-5 -4 -6 -3 -9 2 -8 16 4 53 -14 48 -23 -4 -5 -1 -9 4 -9 6 0 11 5 11 11 0 5
5 7 10 4 6 -4 7 -12 3 -18 -4 -8 -1 -7 9 1 10 8 19 9 22 3 4 -5 14 -9 24 -9 9
0 31 -5 47 -12 17 -7 35 -14 41 -15 6 -2 25 -6 42 -10 28 -6 32 -4 38 21 5 18
1 38 -11 59 -14 27 -16 48 -11 116 3 46 8 93 10 104 2 11 7 56 10 100 4 44 9
91 11 105 8 54 19 175 16 184 -1 4 6 15 16 23 10 8 12 12 6 8 -9 -4 -13 3 -13
25 0 22 4 29 13 24 9 -6 9 -4 1 7 -6 8 -9 23 -7 34 2 11 5 26 5 32 1 9 5 10
14 2 12 -10 25 -65 29 -124 1 -16 3 -35 4 -41 1 -10 71 -37 78 -30 7 7 12 202
5 212 -4 6 -99 50 -211 98 -251 108 -245 106 -258 98z"/>
<path d="M2894 5216 c1 -8 5 -18 8 -22 4 -3 5 1 4 10 -1 8 -5 18 -8 22 -4 3
-5 -1 -4 -10z"/>
<path d="M4429 5203 c-13 -16 -12 -17 4 -4 16 13 21 21 13 21 -2 0 -10 -8 -17
-17z"/>
<path d="M4700 5179 c0 -5 5 -7 10 -4 6 3 10 8 10 11 0 2 -4 4 -10 4 -5 0 -10
-5 -10 -11z"/>
<path d="M5194 5150 c0 -13 4 -16 10 -10 7 7 7 13 0 20 -6 6 -10 3 -10 -10z"/>
<path d="M4455 5129 c-4 -6 -5 -12 -2 -15 2 -3 7 2 10 11 7 17 1 20 -8 4z"/>
<path d="M2950 5119 c0 -5 5 -7 10 -4 6 3 10 8 10 11 0 2 -4 4 -10 4 -5 0 -10
-5 -10 -11z"/>
<path d="M4999 5113 c-13 -16 -12 -17 4 -4 9 7 17 15 17 17 0 8 -8 3 -21 -13z"/>
<path d="M5340 5120 c0 -5 5 -10 11 -10 5 0 7 5 4 10 -3 6 -8 10 -11 10 -2 0
-4 -4 -4 -10z"/>
<path d="M4475 5110 c-3 -5 -1 -10 4 -10 6 0 11 5 11 10 0 6 -2 10 -4 10 -3 0
-8 -4 -11 -10z"/>
<path d="M2958 5083 c7 -3 16 -2 19 1 4 3 -2 6 -13 5 -11 0 -14 -3 -6 -6z"/>
<path d="M4467 5079 c7 -9 10 -19 6 -23 -4 -4 1 -4 10 0 10 3 17 7 15 8 -2 1
-12 8 -23 16 -18 14 -19 13 -8 -1z"/>
<path d="M2990 5070 c0 -5 5 -10 11 -10 5 0 7 5 4 10 -3 6 -8 10 -11 10 -2 0
-4 -4 -4 -10z"/>
<path d="M5190 5010 c8 -5 20 -10 25 -10 6 0 3 5 -5 10 -8 5 -19 10 -25 10 -5
0 -3 -5 5 -10z"/>
<path d="M5315 5011 c-3 -5 -2 -12 3 -15 5 -3 9 1 9 9 0 17 -3 19 -12 6z"/>
<path d="M3020 4996 c0 -2 7 -7 16 -10 8 -3 12 -2 9 4 -6 10 -25 14 -25 6z"/>
<path d="M5315 4971 c-6 -11 13 -26 22 -17 4 3 1 6 -6 6 -7 0 -9 5 -6 10 3 6
4 10 1 10 -3 0 -7 -4 -11 -9z"/>
<path d="M3050 4960 c0 -5 5 -10 11 -10 5 0 7 5 4 10 -3 6 -8 10 -11 10 -2 0
-4 -4 -4 -10z"/>
<path d="M2875 4920 c3 -5 8 -10 11 -10 2 0 4 5 4 10 0 6 -5 10 -11 10 -5 0
-7 -4 -4 -10z"/>
<path d="M5305 4920 c-2 -3 5 -7 16 -7 10 -1 19 2 19 6 0 9 -29 10 -35 1z"/>
<path d="M3886 4902 c-3 -5 1 -9 9 -9 8 0 12 4 9 9 -3 4 -7 8 -9 8 -2 0 -6 -4
-9 -8z"/>
<path d="M4494 4890 c0 -13 4 -16 10 -10 7 7 7 13 0 20 -6 6 -10 3 -10 -10z"/>
<path d="M3074 4856 c1 -8 5 -18 8 -22 4 -3 5 1 4 10 -1 8 -5 18 -8 22 -4 3
-5 -1 -4 -10z"/>
<path d="M5756 4853 c-7 -24 -3 -48 13 -67 14 -16 7 -71 -7 -62 -4 2 -9 -5 -9
-17 -2 -17 0 -18 7 -7 6 10 9 5 8 -18 -1 -18 -6 -32 -12 -32 -6 0 -4 -5 4 -10
10 -7 11 -10 2 -10 -8 0 -11 -9 -8 -26 4 -19 1 -24 -10 -20 -7 3 -14 1 -14 -4
0 -6 8 -10 18 -10 13 0 14 -2 3 -9 -11 -7 -11 -9 0 -14 8 -3 9 -6 2 -6 -6 -1
-9 -10 -5 -23 4 -16 2 -19 -9 -13 -12 8 -12 6 -1 -8 12 -14 11 -16 -7 -12 -12
2 -19 0 -16 -6 4 -5 12 -9 20 -9 10 0 11 -9 4 -41 -5 -22 -7 -44 -4 -49 3 -5
-2 -16 -11 -24 -8 -9 -11 -16 -5 -16 6 0 11 -5 11 -11 0 -5 -4 -7 -10 -4 -5 3
-10 2 -10 -4 0 -5 6 -12 13 -14 7 -3 4 -6 -6 -6 -17 -1 -17 -2 -2 -17 15 -15
15 -18 -1 -41 -9 -14 -11 -22 -5 -19 6 4 11 2 11 -3 0 -11 -13 -15 -38 -12 -9
1 -11 -7 -7 -29 3 -19 2 -29 -4 -26 -5 4 -13 1 -17 -6 -4 -7 -4 -10 0 -6 5 4
17 -2 29 -12 11 -11 24 -17 29 -14 4 3 8 1 8 -5 0 -5 -6 -12 -12 -14 -10 -4
-10 -6 -1 -6 6 -1 14 3 18 8 6 10 60 -4 81 -21 7 -5 16 -8 20 -7 5 1 18 1 29
0 16 -1 17 -3 6 -10 -9 -6 -2 -8 20 -6 29 2 34 6 37 30 2 16 -2 38 -8 51 -10
17 -10 42 0 111 6 48 13 99 15 113 9 68 19 136 21 143 1 4 2 23 3 42 1 32 3
35 26 31 22 -4 24 -2 15 15 -13 24 -21 25 -13 2 5 -15 3 -16 -8 -5 -10 9 -10
15 -1 24 17 17 35 -3 36 -41 1 -22 4 -27 14 -19 9 8 12 6 12 -6 0 -11 4 -14
13 -9 11 7 16 9 35 12 12 1 32 47 32 72 0 11 4 18 9 14 5 -3 13 -1 16 5 4 6 1
9 -6 8 -8 -2 -15 12 -20 36 -13 75 -78 105 -120 56 -9 -11 -20 -16 -24 -12 -5
4 -5 1 -1 -5 4 -7 2 -21 -4 -30 -8 -14 -10 -6 -7 35 2 29 -1 59 -7 66 -11 13
-155 76 -175 76 -5 0 -12 -8 -15 -17z"/>
<path d="M3893 4827 c-1 -11 -1 -18 0 -16 2 2 8 11 15 20 9 12 9 16 -1 16 -7
0 -14 -9 -14 -20z"/>
<path d="M5305 4840 c-3 -6 1 -7 9 -4 18 7 21 14 7 14 -6 0 -13 -4 -16 -10z"/>
<path d="M5630 4830 c0 -5 5 -10 11 -10 5 0 7 5 4 10 -3 6 -8 10 -11 10 -2 0
-4 -4 -4 -10z"/>
<path d="M3610 4819 c0 -5 5 -7 10 -4 6 3 10 8 10 11 0 2 -4 4 -10 4 -5 0 -10
-5 -10 -11z"/>
<path d="M4516 4817 c3 -10 9 -15 12 -12 3 3 0 11 -7 18 -10 9 -11 8 -5 -6z"/>
<path d="M6208 4812 c-21 -4 -20 -3 -22 -59 -1 -24 2 -43 6 -43 5 0 6 5 3 10
-3 6 -2 10 4 10 5 0 11 -5 13 -11 2 -5 12 -12 23 -13 11 -2 19 -8 18 -13 -1
-5 12 -7 29 -5 23 4 29 2 23 -8 -5 -9 -4 -11 4 -6 7 5 24 9 37 11 68 7 67 67
-3 100 -41 20 -107 33 -135 27z"/>
<path d="M2890 4780 c0 -5 5 -10 11 -10 5 0 7 5 4 10 -3 6 -8 10 -11 10 -2 0
-4 -4 -4 -10z"/>
<path d="M5750 4781 c0 -6 4 -13 10 -16 6 -3 7 1 4 9 -7 18 -14 21 -14 7z"/>
<path d="M6156 4762 c-3 -5 1 -9 9 -9 8 0 12 4 9 9 -3 4 -7 8 -9 8 -2 0 -6 -4
-9 -8z"/>
<path d="M2910 4740 c0 -5 5 -10 11 -10 5 0 7 5 4 10 -3 6 -8 10 -11 10 -2 0
-4 -4 -4 -10z"/>
<path d="M3614 4730 c0 -13 4 -16 10 -10 7 7 7 13 0 20 -6 6 -10 3 -10 -10z"/>
<path d="M5297 4699 c7 -7 15 -10 18 -7 3 3 -2 9 -12 12 -14 6 -15 5 -6 -5z"/>
<path d="M2908 4693 c6 -2 10 -9 7 -14 -4 -5 1 -6 10 -2 13 5 14 7 3 14 -7 5
-17 8 -23 8 -5 0 -4 -3 3 -6z"/>
<path d="M6153 4688 c-7 -9 -6 -24 5 -48 20 -46 22 -60 10 -60 -6 0 -8 7 -4
15 8 22 -2 18 -14 -5 -8 -15 -8 -20 1 -18 7 2 15 -6 17 -16 3 -14 0 -17 -12
-13 -8 3 -18 1 -22 -5 -4 -7 -3 -8 4 -4 7 4 12 2 12 -4 0 -6 4 -9 8 -6 5 3 4
-19 -1 -49 -8 -44 -13 -53 -29 -50 -10 2 -16 0 -13 -6 4 -5 10 -7 15 -4 5 3
11 1 14 -4 4 -5 2 -13 -4 -16 -8 -5 -7 -11 1 -21 13 -16 -1 -19 -19 -4 -7 5
-6 3 2 -6 13 -15 12 -19 -3 -33 -9 -9 -11 -12 -4 -7 8 5 17 5 21 1 4 -4 1 -10
-6 -12 -6 -3 -9 -9 -6 -14 3 -6 0 -17 -8 -26 -9 -12 -9 -15 0 -9 6 4 12 2 12
-3 0 -6 -3 -11 -8 -11 -4 0 -7 -18 -6 -40 1 -31 -2 -40 -13 -36 -9 4 -11 2 -6
-7 10 -16 11 -67 1 -67 -4 0 -5 -7 -2 -15 4 -9 0 -15 -10 -15 -9 0 -16 -1 -16
-3 0 -1 -4 -16 -9 -33 -5 -20 -5 -37 1 -45 8 -11 9 -10 4 4 -5 16 -4 16 21 0
14 -10 38 -19 52 -21 14 -2 31 -8 38 -14 7 -6 13 -7 13 -3 0 4 6 2 13 -4 8 -6
17 -8 20 -4 4 3 7 1 7 -5 0 -6 7 -9 17 -5 10 4 14 2 10 -4 -4 -6 3 -8 17 -6
29 6 39 38 22 70 -10 20 -8 48 11 166 13 78 25 153 28 167 2 14 10 66 19 115
30 182 32 163 -19 186 -25 11 -45 24 -45 30 0 6 -4 8 -8 5 -5 -3 -20 1 -35 9
-42 22 -83 27 -94 13z"/>
<path d="M4510 4660 c0 -5 5 -10 11 -10 5 0 7 5 4 10 -3 6 -8 10 -11 10 -2 0
-4 -4 -4 -10z"/>
<path d="M3620 4646 c0 -2 8 -10 18 -17 15 -13 16 -12 3 4 -13 16 -21 21 -21
13z"/>
<path d="M3971 4634 c0 -11 3 -14 6 -6 3 7 2 16 -1 19 -3 4 -6 -2 -5 -13z"/>
<path d="M3308 4618 c5 -5 16 -8 23 -6 8 3 3 7 -10 11 -17 4 -21 3 -13 -5z"/>
<path d="M4540 4620 c0 -5 5 -10 11 -10 5 0 7 5 4 10 -3 6 -8 10 -11 10 -2 0
-4 -4 -4 -10z"/>
<path d="M3056 4605 c-3 -8 -1 -15 4 -15 6 0 10 7 10 15 0 8 -2 15 -4 15 -2 0
-6 -7 -10 -15z"/>
<path d="M3655 4600 c3 -5 11 -10 16 -10 6 0 7 5 4 10 -3 6 -11 10 -16 10 -6
0 -7 -4 -4 -10z"/>
<path d="M3350 4586 c0 -2 7 -7 16 -10 8 -3 12 -2 9 4 -6 10 -25 14 -25 6z"/>
<path d="M4775 4580 c-3 -6 1 -7 9 -4 18 7 21 14 7 14 -6 0 -13 -4 -16 -10z"/>
<path d="M3450 4576 c0 -2 8 -10 18 -17 15 -13 16 -12 3 4 -13 16 -21 21 -21
13z"/>
<path d="M4023 4573 c-7 -3 -13 -8 -13 -13 0 -10 24 -7 28 4 5 11 -1 14 -15 9z"/>
<path d="M2446 4563 c-1 -2 -58 -5 -127 -8 -139 -5 -254 -14 -389 -30 -25 -3
-61 -7 -80 -9 -50 -5 -252 -36 -270 -41 -8 -3 -32 -7 -54 -11 -21 -3 -46 -7
-55 -9 -47 -11 -169 -37 -187 -41 -16 -3 -262 -73 -309 -88 -5 -1 -23 -6 -40
-11 -91 -24 -370 -136 -503 -202 -84 -41 -152 -77 -150 -78 2 -2 48 8 103 21
85 20 161 35 305 59 23 4 56 9 140 20 19 3 62 8 95 11 33 3 76 7 95 9 262 31
839 21 1190 -20 19 -2 58 -7 85 -10 119 -13 145 -16 240 -30 19 -3 50 -7 68
-10 89 -12 116 -17 165 -26 29 -6 65 -12 80 -14 22 -3 161 -28 222 -40 128
-26 293 -61 360 -77 47 -11 96 -22 110 -24 14 -3 33 -7 42 -10 9 -3 25 -6 35
-8 10 -2 36 -9 58 -14 22 -6 51 -13 65 -16 14 -2 59 -13 100 -24 41 -11 147
-39 235 -62 88 -23 223 -60 300 -82 77 -22 145 -41 150 -42 6 -2 17 -5 25 -8
8 -3 51 -16 95 -27 44 -12 116 -33 160 -46 44 -14 177 -53 295 -89 118 -35
357 -108 530 -161 173 -53 351 -108 395 -121 44 -14 105 -32 135 -40 30 -8 93
-27 140 -41 47 -15 90 -28 95 -29 20 -4 200 -55 215 -61 8 -3 20 -7 25 -8 6
-2 114 -31 241 -64 128 -34 240 -64 250 -66 11 -2 60 -13 109 -25 107 -25 415
-87 471 -95 21 -3 64 -10 94 -15 61 -10 140 -21 185 -25 170 -16 236 -19 405
-18 263 1 404 24 645 105 298 100 521 276 617 488 48 106 57 128 65 175 1 11
7 45 13 75 10 56 14 205 6 250 -2 14 -8 48 -12 75 -4 28 -8 52 -9 55 -1 3 -5
20 -9 37 -8 36 -25 54 -24 26 2 -29 -41 -174 -68 -232 -98 -209 -281 -350
-539 -415 -144 -36 -269 -46 -495 -41 -118 3 -224 7 -235 9 -11 1 -51 6 -90
11 -38 4 -77 9 -87 10 -9 2 -38 6 -65 10 -65 9 -93 14 -123 20 -14 3 -41 7
-60 10 -53 8 -146 26 -265 51 -88 19 -99 22 -105 24 -3 1 -9 3 -15 4 -5 1 -23
5 -40 9 -43 11 -77 18 -100 22 -11 2 -65 16 -120 30 -115 31 -154 41 -211 53
-22 5 -45 11 -50 15 -6 3 -21 8 -35 11 -20 5 -62 15 -129 31 -19 5 -173 50
-218 64 -18 5 -34 10 -37 11 -5 1 -7 1 -75 21 -25 7 -50 13 -56 15 -6 1 -51
14 -100 28 -49 15 -111 33 -139 41 -27 8 -126 38 -220 65 -93 28 -177 53 -185
55 -8 1 -55 15 -105 30 -49 15 -135 39 -190 55 -55 15 -121 35 -147 43 -27 8
-48 13 -48 11 0 -3 -9 0 -21 6 -11 6 -28 13 -37 15 -9 2 -66 17 -127 35 -60
17 -117 33 -125 35 -8 1 -91 24 -185 50 -165 45 -655 168 -712 179 -15 3 -39
8 -53 11 -14 3 -38 8 -55 11 -16 3 -47 10 -68 15 -21 6 -50 12 -65 14 -15 2
-65 11 -112 20 -47 8 -101 17 -120 20 -19 3 -46 7 -60 9 -14 3 -45 8 -70 11
-25 3 -56 8 -70 10 -33 6 -122 15 -280 30 -41 4 -81 9 -90 10 -8 2 -41 4 -73
4 -44 1 -56 4 -51 14 6 9 5 9 -7 1 -9 -8 -45 -10 -104 -7 -101 5 -395 9 -399
6z"/>
<path d="M3750 4559 c0 -5 5 -7 10 -4 6 3 10 8 10 11 0 2 -4 4 -10 4 -5 0 -10
-5 -10 -11z"/>
<path d="M5973 4545 c0 -8 4 -12 9 -9 5 3 6 10 3 15 -9 13 -12 11 -12 -6z"/>
<path d="M5715 4541 c-3 -5 -2 -12 3 -15 5 -3 9 1 9 9 0 17 -3 19 -12 6z"/>
<path d="M4070 4531 c0 -5 7 -12 16 -15 14 -5 15 -4 4 9 -14 17 -20 19 -20 6z"/>
<path d="M4546 4495 c4 -8 11 -15 16 -15 6 0 5 6 -2 15 -7 8 -14 15 -16 15 -2
0 -1 -7 2 -15z"/>
<path d="M6535 4490 c-22 -11 -51 -36 -65 -56 -14 -19 -30 -41 -37 -48 -7 -8
-9 -16 -6 -20 3 -3 0 -12 -7 -21 -7 -8 -9 -15 -4 -15 4 0 -1 -7 -12 -16 -10
-8 -13 -13 -6 -9 9 5 11 -1 7 -22 -4 -15 -7 -36 -8 -46 -1 -10 -9 -22 -17 -27
-8 -5 -10 -10 -4 -10 13 0 15 -31 2 -47 -5 -7 -5 -13 0 -17 12 -7 10 -56 -2
-75 -6 -10 -5 -12 2 -7 15 9 16 -6 1 -21 -8 -8 -7 -13 2 -18 8 -6 10 -4 4 5
-5 9 -4 11 4 6 7 -5 9 -16 5 -28 -5 -16 -3 -19 7 -13 8 5 6 -1 -4 -12 -14 -16
-14 -20 -2 -20 8 0 12 4 9 9 -3 4 0 8 6 8 7 0 9 -8 5 -21 -4 -13 -3 -19 2 -16
6 4 15 -5 21 -18 10 -21 9 -23 -6 -19 -14 5 -14 4 -3 -4 8 -6 20 -8 28 -5 7 3
13 0 13 -6 0 -6 -4 -11 -10 -11 -5 0 -10 -5 -10 -11 0 -8 5 -7 15 1 9 7 19 9
23 5 4 -4 1 -10 -5 -12 -18 -6 -16 -20 2 -20 8 0 12 4 9 9 -3 4 2 8 11 8 8 0
18 -6 21 -14 3 -9 12 -12 21 -9 12 5 14 3 8 -8 -8 -12 -6 -12 8 0 14 11 18 11
23 -4 4 -9 10 -13 13 -8 3 5 25 14 48 21 47 14 91 60 100 104 3 15 10 31 15
34 8 5 -26 43 -41 45 -3 0 -14 2 -24 4 -13 2 -20 -7 -29 -42 -6 -25 -22 -56
-35 -70 -23 -22 -27 -23 -47 -10 -22 15 -25 39 -13 112 15 83 20 111 24 130 2
11 13 70 23 130 28 154 39 175 75 139 12 -12 13 -19 4 -30 -6 -8 -8 -14 -4
-14 4 0 3 -6 -2 -12 -5 -7 -9 -32 -8 -55 1 -24 -2 -43 -7 -43 -5 0 -6 -5 -2
-11 4 -8 9 -7 15 2 4 7 11 10 15 6 4 -3 1 -13 -6 -22 -7 -9 -8 -15 -2 -15 6 0
13 6 15 13 4 9 8 9 15 -2 15 -21 67 -5 81 25 49 107 -76 264 -210 264 -13 0
-42 -9 -64 -20z"/>
<path d="M6908 4498 c-5 -44 -4 -68 4 -68 8 0 1 -87 -9 -103 -3 -4 -12 -6 -22
-3 -14 5 -14 5 1 -7 21 -16 20 -60 -1 -52 -10 4 -11 2 -3 -7 12 -15 4 -71 -8
-63 -5 3 -12 1 -15 -5 -4 -6 -3 -9 2 -8 4 2 9 -1 11 -7 1 -5 -2 -10 -7 -10 -5
0 -13 -4 -18 -8 -4 -5 -1 -7 7 -5 8 2 15 -3 14 -9 -4 -47 -3 -46 -21 -32 -16
12 -16 11 0 -8 12 -14 15 -23 7 -28 -5 -3 -8 -10 -5 -15 7 -12 -5 -41 -15 -35
-5 3 -12 0 -16 -6 -4 -8 -3 -9 5 -5 13 9 28 -23 15 -33 -5 -3 -9 -16 -8 -28 1
-13 -2 -23 -7 -23 -4 0 -6 -9 -4 -21 3 -14 0 -19 -9 -16 -7 3 -13 -1 -13 -9 0
-7 4 -11 9 -8 4 3 8 -1 8 -9 0 -7 -16 -28 -36 -45 -28 -25 -32 -32 -17 -32 15
0 16 -2 3 -10 -12 -8 -11 -10 6 -10 11 0 24 -4 30 -9 5 -6 21 -11 36 -13 15
-2 30 -7 34 -11 4 -4 18 -7 31 -7 13 0 22 -4 19 -8 -3 -5 17 -10 44 -11 47 -1
50 0 50 23 0 14 -5 28 -10 31 -11 7 -5 80 8 100 4 5 7 16 8 23 3 20 25 42 40
42 17 0 18 -12 2 -28 -7 -7 -8 -12 -3 -12 5 0 0 -7 -11 -15 -18 -13 -18 -14 6
-9 20 5 22 3 10 -5 -8 -6 -10 -11 -5 -11 15 0 16 -40 2 -40 -9 0 -9 -2 0 -8
13 -8 12 -29 -1 -51 -6 -9 -5 -12 1 -8 7 4 12 -7 15 -27 3 -24 0 -32 -9 -29
-7 3 -13 -1 -13 -8 0 -7 3 -9 6 -6 4 3 16 2 27 -4 12 -7 17 -7 13 -1 -4 6 3 8
16 4 12 -3 17 -7 10 -10 -6 -2 -12 -8 -12 -13 0 -6 7 -6 18 0 21 11 62 4 62
-10 0 -5 12 -6 26 -3 20 5 25 4 19 -6 -6 -9 -3 -10 12 -1 14 7 24 7 33 -2 12
-10 12 -9 2 4 -7 9 -12 21 -11 25 2 5 -2 27 -8 49 -7 22 -14 101 -18 175 -4
74 -8 156 -10 182 -2 36 1 51 16 64 10 9 19 13 19 8 0 -5 4 -4 8 1 4 6 21 17
37 25 53 28 40 49 -55 86 -79 30 -86 32 -97 16 -7 -9 -18 -23 -25 -31 -10 -12
-9 -14 6 -8 13 5 17 3 13 -7 -4 -9 0 -12 13 -9 13 4 18 0 16 -13 -2 -10 -9
-20 -16 -22 -7 -3 -10 0 -6 6 7 12 -20 10 -31 -3 -4 -4 -3 -5 4 -1 15 8 25 -8
17 -28 -4 -11 -13 -15 -28 -11 -13 4 -16 3 -9 -2 9 -7 2 -21 -27 -54 l-40 -44
5 35 c3 19 19 94 35 165 45 202 50 182 -52 225 -48 20 -91 39 -95 43 -11 11
-33 8 -35 -5z"/>
<path d="M4785 4479 c-6 -8 -4 -10 5 -4 10 6 12 4 6 -11 -6 -15 -5 -17 5 -6 9
9 10 15 2 23 -8 8 -13 7 -18 -2z"/>
<path d="M4545 4460 c-3 -6 1 -7 9 -4 18 7 21 14 7 14 -6 0 -13 -4 -16 -10z"/>
<path d="M6875 4420 c3 -5 8 -10 11 -10 2 0 4 5 4 10 0 6 -5 10 -11 10 -5 0
-7 -4 -4 -10z"/>
<path d="M6661 4396 c-8 -10 -9 -16 -1 -21 6 -4 10 -3 9 2 -4 21 2 24 19 12
15 -13 16 -12 3 4 -16 21 -16 21 -30 3z"/>
<path d="M5708 4373 c7 -3 16 -2 19 1 4 3 -2 6 -13 5 -11 0 -14 -3 -6 -6z"/>
<path d="M4810 4365 c0 -5 5 -17 10 -25 5 -8 10 -10 10 -5 0 6 -5 17 -10 25
-5 8 -10 11 -10 5z"/>
<path d="M4902 4324 c-7 -8 -8 -14 -3 -14 10 0 25 19 20 25 -2 1 -10 -3 -17
-11z"/>
<path d="M6657 4285 c-4 -8 -3 -16 1 -19 4 -3 9 4 9 15 2 23 -3 25 -10 4z"/>
<path d="M5690 4261 c0 -6 4 -13 10 -16 6 -3 7 1 4 9 -7 18 -14 21 -14 7z"/>
<path d="M5249 4237 c6 -8 7 -18 3 -22 -4 -5 -2 -5 5 -1 14 8 6 36 -9 36 -7 0
-6 -5 1 -13z"/>
<path d="M6373 4235 c0 -8 4 -12 9 -9 5 3 6 10 3 15 -9 13 -12 11 -12 -6z"/>
<path d="M5330 4211 c0 -7 -5 -9 -12 -5 -7 5 -8 3 -3 -5 5 -9 10 -10 18 -2 6
6 8 14 4 18 -4 3 -7 1 -7 -6z"/>
<path d="M5377 4183 c-3 -5 8 -8 25 -9 20 -1 25 2 16 7 -16 11 -35 11 -41 2z"/>
<path d="M5453 4165 c0 -8 4 -12 9 -9 5 3 6 10 3 15 -9 13 -12 11 -12 -6z"/>
<path d="M7475 4140 c-32 -13 -65 -54 -67 -83 -1 -15 -5 -27 -9 -27 -4 0 -6
-11 -6 -25 0 -13 3 -22 7 -20 5 3 7 -3 6 -12 -2 -10 1 -28 5 -41 6 -14 5 -21
0 -17 -5 3 -13 1 -16 -5 -4 -6 -3 -10 2 -9 23 4 33 -3 33 -25 0 -14 5 -28 11
-32 8 -4 7 -9 -2 -15 -9 -5 -17 -2 -21 9 -7 14 -7 14 -5 -3 1 -11 9 -20 17
-21 35 -2 40 -5 40 -20 0 -9 -5 -12 -12 -8 -6 4 -8 3 -4 -4 3 -6 -2 -15 -11
-21 -10 -6 -13 -11 -7 -11 5 0 15 5 21 11 6 6 16 8 22 5 18 -11 13 -26 -6 -20
-10 2 -9 0 4 -7 26 -14 34 -40 20 -65 -9 -17 -9 -18 6 -5 15 12 17 11 14 -7
-2 -12 -6 -25 -10 -28 -15 -15 -56 20 -77 67 -18 37 -30 50 -52 54 -37 8 -40
5 -40 -39 0 -24 -4 -34 -11 -29 -7 4 -6 -1 2 -10 9 -12 12 -31 8 -59 -3 -23
-2 -36 2 -29 7 10 13 10 29 2 16 -9 24 -8 36 5 15 14 20 11 17 -8 0 -4 5 -5
12 -2 7 2 21 -4 31 -15 10 -11 25 -17 34 -14 11 5 13 3 7 -8 -8 -12 -6 -12 8
0 16 13 22 8 17 -14 -1 -5 7 -2 18 8 10 9 22 17 26 17 17 0 67 43 80 69 36 68
26 139 -42 296 -21 50 -42 103 -46 119 -7 27 -6 28 10 15 11 -9 15 -9 10 -1
-4 7 -2 12 4 12 7 0 14 -9 17 -20 3 -11 10 -20 15 -20 6 0 7 -8 4 -17 -4 -10
-4 -14 0 -10 9 8 34 -39 30 -56 -1 -7 -1 -9 1 -5 3 4 15 2 28 -4 41 -18 51 -6
53 64 1 77 -5 89 -48 90 -19 1 -58 14 -88 30 -55 28 -90 34 -127 18z"/>
<path d="M6070 4120 c0 -5 5 -10 11 -10 5 0 7 5 4 10 -3 6 -8 10 -11 10 -2 0
-4 -4 -4 -10z"/>
<path d="M6353 4110 c-11 -16 -10 -18 2 -14 8 4 15 12 15 20 0 19 -3 18 -17
-6z"/>
<path d="M5735 4080 c3 -5 8 -10 11 -10 2 0 4 5 4 10 0 6 -5 10 -11 10 -5 0
-7 -4 -4 -10z"/>
<path d="M5816 4047 c3 -10 9 -15 12 -12 3 3 0 11 -7 18 -10 9 -11 8 -5 -6z"/>
<path d="M6353 4005 c0 -8 4 -12 9 -9 5 3 6 10 3 15 -9 13 -12 11 -12 -6z"/>
<path d="M7595 4010 c3 -5 8 -10 11 -10 2 0 4 5 4 10 0 6 -5 10 -11 10 -5 0
-7 -4 -4 -10z"/>
<path d="M7606 3978 c3 -5 10 -6 15 -3 13 9 11 12 -6 12 -8 0 -12 -4 -9 -9z"/>
<path d="M6796 3953 c-6 -14 -5 -15 5 -6 7 7 10 15 7 18 -3 3 -9 -2 -12 -12z"/>
<path d="M7630 3959 c0 -5 5 -7 10 -4 6 3 10 8 10 11 0 2 -4 4 -10 4 -5 0 -10
-5 -10 -11z"/>
<path d="M6156 3942 c-3 -5 1 -9 9 -9 8 0 12 4 9 9 -3 4 -7 8 -9 8 -2 0 -6 -4
-9 -8z"/>
<path d="M6193 3931 c0 -11 5 -18 9 -15 4 3 5 11 1 19 -7 21 -12 19 -10 -4z"/>
<path d="M7370 3938 c0 -4 4 -8 9 -8 6 0 12 4 15 8 3 5 -1 9 -9 9 -8 0 -15 -4
-15 -9z"/>
<path d="M7673 3915 c0 -8 4 -12 9 -9 5 3 6 10 3 15 -9 13 -12 11 -12 -6z"/>
<path d="M7386 3878 c3 -4 11 -5 19 -1 21 7 19 12 -4 10 -11 0 -18 -5 -15 -9z"/>
<path d="M7033 3825 c0 -8 4 -12 9 -9 4 3 8 9 8 15 0 5 -4 9 -8 9 -5 0 -9 -7
-9 -15z"/>
<path d="M6510 3825 c0 -5 5 -17 10 -25 5 -8 10 -10 10 -5 0 6 -5 17 -10 25
-5 8 -10 11 -10 5z"/>
<path d="M7435 3799 c-4 -6 -5 -12 -2 -15 2 -3 7 2 10 11 7 17 1 20 -8 4z"/>
<path d="M7026 3781 c-4 -5 3 -7 14 -4 23 6 26 13 6 13 -8 0 -17 -4 -20 -9z"/>
<path d="M1276 3733 c-1 -1 -47 -4 -101 -7 -55 -3 -116 -8 -135 -10 -19 -2
-71 -7 -115 -11 -44 -3 -89 -8 -100 -10 -11 -2 -42 -7 -70 -10 -112 -14 -172
-22 -205 -30 -14 -3 -38 -7 -55 -10 -16 -3 -41 -8 -55 -10 -14 -3 -36 -7 -50
-10 -21 -4 -72 -15 -90 -20 -3 -1 -22 -5 -42 -9 -21 -5 -36 -12 -33 -16 3 -5
19 -4 37 0 17 5 65 12 107 15 42 3 87 7 100 10 150 29 914 23 1176 -9 22 -3
66 -8 99 -11 32 -3 90 -10 130 -16 39 -5 89 -12 111 -15 22 -3 65 -10 95 -15
30 -6 66 -12 80 -14 51 -7 125 -22 125 -25 0 -1 9 -3 20 -4 67 -10 110 -18
131 -26 13 -5 24 -8 24 -5 0 2 15 -1 33 -6 17 -5 43 -11 57 -14 14 -3 36 -7
50 -10 14 -3 35 -8 47 -11 12 -2 35 -9 50 -15 16 -6 29 -10 31 -10 2 1 5 0 20
-4 4 -1 24 -5 45 -9 20 -5 40 -12 43 -17 3 -5 9 -7 14 -4 4 3 26 -2 49 -10 23
-8 42 -14 44 -14 1 1 22 -5 47 -12 25 -7 47 -13 50 -14 3 0 30 -9 60 -20 30
-10 60 -20 67 -21 18 -3 87 -26 98 -33 6 -3 16 -6 23 -7 8 -2 21 -6 30 -10 9
-4 20 -8 25 -9 4 -2 9 -4 12 -5 3 -1 10 -4 15 -5 6 -1 12 -4 15 -5 8 -4 17 -7
53 -15 17 -4 32 -11 32 -16 0 -5 6 -6 14 -3 8 3 17 0 21 -5 3 -6 11 -9 16 -6
5 4 9 2 9 -3 0 -5 6 -9 13 -9 10 0 111 -33 157 -50 8 -4 18 -5 23 -5 4 1 7 -3
7 -9 0 -5 5 -7 10 -4 6 4 16 2 23 -3 7 -6 29 -13 50 -17 20 -4 37 -11 37 -16
0 -5 3 -8 8 -7 6 2 65 -15 102 -29 8 -4 17 -7 20 -7 8 -2 334 -108 350 -114 8
-3 18 -6 23 -7 4 -2 9 -4 12 -5 5 -3 6 -3 50 -15 17 -4 36 -12 43 -18 6 -5 12
-6 12 -2 0 4 6 3 13 -3 6 -6 15 -10 20 -10 16 -1 72 -15 87 -23 12 -6 57 -19
80 -23 6 -1 116 -36 140 -44 8 -3 18 -6 23 -7 4 -2 8 -3 10 -5 1 -1 15 -4 31
-6 16 -3 38 -10 48 -15 11 -6 28 -12 39 -15 10 -2 29 -7 42 -10 12 -3 27 -6
32 -7 6 -2 16 -6 23 -10 6 -5 12 -6 12 -3 0 3 12 1 28 -5 26 -10 37 -13 82
-23 11 -3 24 -7 28 -10 5 -3 19 -7 33 -10 13 -2 60 -14 104 -26 44 -12 85 -23
92 -24 7 -1 15 -5 19 -8 3 -4 12 -4 20 -1 8 3 14 1 14 -5 0 -6 8 -8 19 -5 10
3 22 0 25 -6 4 -5 13 -8 20 -5 8 3 17 0 21 -5 3 -6 11 -9 16 -6 5 4 15 3 21
-1 7 -5 19 -9 28 -10 8 -1 25 -5 38 -8 12 -3 31 -8 42 -11 11 -3 30 -8 43 -11
12 -3 31 -7 42 -8 11 -2 20 -4 20 -5 0 -3 21 -8 69 -16 22 -4 49 -10 60 -15
12 -4 24 -8 29 -8 8 0 88 -15 97 -17 3 -1 29 -5 58 -10 28 -4 52 -10 52 -14 0
-3 10 -6 23 -7 12 0 36 -3 52 -6 17 -3 57 -11 90 -17 33 -6 71 -13 85 -16 22
-5 64 -11 125 -20 11 -1 20 -3 20 -5 0 -1 14 -3 30 -4 35 -3 131 -16 160 -22
22 -5 76 -11 150 -19 28 -3 66 -7 85 -9 66 -8 175 -18 235 -21 33 -2 107 -7
165 -11 218 -14 645 -4 830 21 25 3 63 8 85 10 22 3 49 7 60 9 11 2 43 7 70
10 28 4 84 14 125 22 41 9 84 17 95 18 12 1 27 6 34 10 7 4 15 5 18 2 3 -3 12
-1 19 4 6 6 17 9 24 8 7 -2 15 3 18 11 2 8 1 11 -4 9 -5 -3 -45 -9 -89 -12
-44 -4 -109 -10 -145 -13 -92 -7 -581 -7 -665 1 -38 3 -110 8 -160 11 -49 3
-101 8 -115 10 -14 3 -56 8 -95 10 -38 3 -81 8 -95 10 -14 2 -50 7 -80 10 -30
4 -64 8 -75 10 -11 2 -40 6 -65 9 -25 4 -70 11 -100 16 -55 10 -80 14 -155 25
-22 3 -47 9 -55 12 -8 3 -26 7 -40 8 -53 6 -104 15 -170 31 -14 3 -34 7 -45 9
-11 2 -33 6 -50 9 -16 3 -43 8 -60 12 -16 3 -34 9 -41 15 -6 5 -13 6 -16 4 -3
-3 -25 -1 -49 5 -24 6 -55 13 -69 16 -14 3 -41 9 -60 14 -35 9 -71 17 -125 27
-16 3 -32 8 -35 11 -3 4 -21 9 -40 10 -19 2 -37 7 -40 10 -3 4 -14 8 -25 10
-70 10 -125 24 -130 33 -3 4 -12 6 -19 3 -8 -3 -17 0 -21 5 -3 6 -11 9 -16 6
-5 -4 -15 -3 -21 2 -7 4 -22 9 -33 10 -11 2 -27 6 -35 10 -8 3 -26 8 -40 10
-14 2 -32 6 -40 10 -8 3 -19 7 -25 9 -77 19 -111 30 -116 37 -3 5 -9 8 -13 7
-10 -3 -79 11 -91 18 -10 7 -13 7 -56 16 -15 3 -43 13 -63 21 -20 8 -38 15
-41 15 -3 0 -7 1 -10 1 -3 1 -9 3 -15 4 -5 1 -11 3 -12 5 -2 1 -11 3 -20 6
-10 2 -26 6 -35 8 -10 3 -18 5 -18 6 0 1 -11 4 -25 6 -14 3 -27 9 -28 14 -2 6
-8 8 -13 5 -4 -3 -21 1 -37 9 -16 8 -32 12 -35 9 -4 -3 -14 0 -23 8 -10 8 -19
12 -21 10 -6 -6 -123 34 -123 42 0 5 -4 6 -10 2 -5 -3 -17 -1 -27 4 -10 5 -52
19 -93 31 -41 12 -88 27 -105 33 -16 7 -32 12 -35 13 -3 1 -20 5 -37 9 -18 4
-33 12 -33 17 0 5 -3 7 -7 5 -5 -3 -19 0 -33 6 -14 5 -36 12 -50 14 -14 2 -26
8 -28 14 -2 5 -11 9 -20 9 -22 0 -146 43 -150 52 -2 4 -10 4 -18 1 -8 -3 -14
0 -14 6 0 6 -7 8 -15 5 -8 -4 -15 -1 -15 6 0 6 -4 8 -10 5 -5 -3 -20 0 -32 7
-13 7 -29 11 -35 10 -7 -2 -13 2 -13 8 0 5 -3 9 -7 8 -10 -3 -126 34 -133 41
-3 3 -16 8 -30 10 -14 1 -28 7 -31 13 -3 5 -9 9 -13 8 -4 -1 -17 1 -29 5 -12
4 -25 7 -29 6 -5 -1 -8 4 -8 10 0 5 -4 8 -8 5 -4 -3 -38 6 -75 19 -37 13 -67
21 -67 18 0 -3 -6 -1 -12 5 -7 6 -16 11 -20 11 -5 1 -9 1 -10 2 -4 1 -36 9
-50 12 -7 1 -19 6 -25 10 -7 5 -13 6 -13 2 0 -3 -13 1 -30 10 -16 9 -30 13
-30 9 0 -4 -6 -1 -13 5 -8 6 -17 8 -20 4 -4 -3 -13 -1 -20 5 -8 7 -16 9 -20 6
-3 -3 -14 -1 -25 5 -10 5 -30 12 -43 15 -23 5 -42 9 -89 21 -11 3 -29 7 -40
10 -11 3 -29 7 -41 10 -11 2 -29 7 -39 10 -20 6 -29 8 -130 30 -56 12 -71 15
-92 20 -13 3 -39 8 -58 11 -19 3 -43 8 -53 10 -10 3 -32 7 -50 10 -18 2 -43 6
-57 9 -61 12 -77 14 -110 19 -83 11 -136 19 -155 23 -11 2 -40 6 -65 9 -25 3
-58 7 -75 8 -30 4 -132 13 -215 21 -144 12 -283 17 -508 19 -140 0 -255 0
-256 -1z"/>
<path d="M6836 3728 c3 -5 10 -6 15 -3 13 9 11 12 -6 12 -8 0 -12 -4 -9 -9z"/>
<path d="M7034 3708 c0 -10 1 -18 3 -18 1 0 7 8 12 18 7 13 6 19 -2 19 -7 0
-13 -9 -13 -19z"/>
<path d="M6880 3700 c-9 -6 -10 -10 -3 -10 6 0 15 5 18 10 8 12 4 12 -15 0z"/>
<path d="M7307 3658 c6 -7 9 -21 8 -30 -2 -10 0 -18 5 -18 14 0 8 49 -8 55
-11 4 -12 2 -5 -7z"/>
<path d="M185 3580 c-16 -7 -17 -9 -3 -9 9 -1 20 4 23 9 7 11 7 11 -20 0z"/>
<path d="M7431 3567 c-8 -10 -7 -14 2 -14 8 0 14 6 14 14 0 7 -1 13 -2 13 -2
0 -8 -6 -14 -13z"/>
<path d="M8806 2351 c-3 -4 6 -6 19 -3 14 2 25 6 25 8 0 8 -39 4 -44 -5z"/>
</g>
</svg>
